{"title":"Saw.3D.2010.R5.Cam Audio.H264.Feel-Free","uid":5965376,"size":694357991,"categoryP":"video","categoryS":"movies","magnet":"?xt=urn:btih:fc11b68b0b320bbd982448b1110d5b265bace678&amp;dn=Saw.3D.2010.R5.Cam+Audio.H264.Feel-Free&amp;tr=udp%3A%2F%2Ftracker.openbittorrent.com%3A80&amp;tr=udp%3A%2F%2Fopen.demonii.com%3A1337&amp;tr=udp%3A%2F%2Ftracker.coppersurfer.tk%3A6969&amp;tr=udp%3A%2F%2Fexodus.desync.com%3A6969","seeders":1,"leechers":0,"uploader":".BONE.","files":11,"time":1290099753,"description":"Genre:Horror | Mystery | Thriller\nLanguage:English &lt;a href=&quot;\nhttp://www.imdb.com/title/tt1477076/&quot; rel=&quot;nofollow&quot; target=&quot;_NEW&quot;&gt;\nhttp://www.imdb.com/title/tt1477076/&lt;/a&gt;\nSource:DVD9/Audio:Cam LKRG.Thx\nSample:Yes\n\nGeneral\nComplete name :Saw.3D.2010.R5.Cam Audio.H264.Feel-Free\nFormat : MPEG-4\nFormat profile : Base Media\nCodec ID : isom\nFile size : 650 MiB\nDuration : 1h 26mn\nOverall bit rate : 1 052 Kbps\nVideo #2\nCodec ID : avc1\nCodec ID/Info : Advanced Video Coding\nDuration : 1h 26mn\nBit rate mode : Variable\nBit rate : 943 Kbps\nWidth : 720 pixels\nHeight : 384 pixels\nDisplay aspect ratio : 1.875\nFrame rate mode : Constant\nFrame rate : 23.976 fps\nOriginal frame rate : 23.000 fps\nResolution : 24 bits\nColorimetry : 4:2:0\nScan type : Progressive\nBits/(Pixel*Frame) : 0.142\nStream size : 583 MiB (90%)\nAudio #1\nID : 1\nFormat : AAC\nFormat/Info : Advanced Audio Codec\nFormat version : Version 4\nFormat profile : LC\nFormat settings, SBR : No\nCodec ID : 40\nDuration : 1h 26mn\nBit rate mode : Constant\nBit rate : 103 Kbps\nChannel(s) : 2 channels\nChannel positions : L R\nSampling rate : 48.0 KHz\nResolution : 16 bits\nStream size : 63.8 MiB (10%)\n\nPlot:\nAs a deadly battle rages over Jigsaw's brutal legacy, a group of Jigsaw survivors gathers to seek the support of self-help guru and fellow survivor Bobby Dagen, a man whose own dark secrets unleash a new wave of terror","torrent":{"xt":"urn:btih:fc11b68b0b320bbd982448b1110d5b265bace678","amp;dn":"Saw.3D.2010.R5.Cam+Audio.H264.Feel-Free","amp;tr":["udp%3A%2F%2Ftracker.openbittorrent.com%3A80","udp%3A%2F%2Fopen.demonii.com%3A1337","udp%3A%2F%2Ftracker.coppersurfer.tk%3A6969","udp%3A%2F%2Fexodus.desync.com%3A6969"],"infoHash":"fc11b68b0b320bbd982448b1110d5b265bace678","infoHashBuffer":{"type":"Buffer","data":[252,17,182,139,11,50,11,189,152,36,72,177,17,13,91,38,91,172,230,120]},"announce":[],"urlList":[]}}